# xmcd CD database file
#
# Track frame offsets:
#	150
#	12537
#	30773
#	40981
#	60043
#	70593
#	83237
#	95696
#	113175
#	130228
#	141045
#	152541
#	162463
#	177045
#	188317
#	200642
#	220188
#
# Disc length: 3012 seconds
#
# Revision: 0
# Processed by: cddbd v1.5.2PL0 Copyright (c) Steve Scherf et al.
# Submitted via: CDex 1.70beta2
#
DISCID=d60bc211
DTITLE=Reggie's Red Hot Feetwarmers - Instant Mardi Gras
DYEAR=1900
DGENRE=Jazz
TTITLE0=I've Found A New Baby
TTITLE1=Winin' Boy
TTITLE2=The Varsity Drag
TTITLE3=Wolverine Blues
TTITLE4=I'm Forever Blowing Bubbles
TTITLE5=Shuffle Off To Buffalo
TTITLE6=Alabama Jubilee
TTITLE7=Bourbon Street Parade
TTITLE8=Memories Of You
TTITLE9=Jubilee
TTITLE10=Keepin' Out Of Mischief Now
TTITLE11=Fugue For Tinhorns
TTITLE12=Back Home In Indiana
TTITLE13=Ice Cream
TTITLE14='Deed I Do
TTITLE15=Just A Closer Walk With Thee
TTITLE16=When The Saints Go Marching In
EXTD=
EXTT0=
EXTT1=
EXTT2=
EXTT3=
EXTT4=
EXTT5=
EXTT6=
EXTT7=
EXTT8=
EXTT9=
EXTT10=
EXTT11=
EXTT12=
EXTT13=
EXTT14=
EXTT15=
EXTT16=
PLAYORDER=
